<svg xmlns="http://www.w3.org/2000/svg" width="430" height="430" fill="none" viewBox="0 0 430 430"><g stroke="#fff" stroke-linecap="round" stroke-linejoin="round" stroke-miterlimit="10" stroke-width="12"><path d="M244.3 285.2c1.7 7.4 7.4 12.9 14.2 14.8 2.8.6 18.2 6.6 22.4 7.9 23.8 7.4 57.5 3 63-26.8 44.5-10.7 55.6-45.1 50.6-84.4 18.3-26.8-3.2-60.6-11.4-76.7-1.8-3.6-7.3-2.1-7.1 1.9v1.9c0 32.5-26.3 67.9-58.8 67.9l-3.3-.1c-10.1.2-18.3 8.4-18.3 18.5 0 0 .2 4.1.2 4.8 0 21.2-13.8 39.1-32.9 45.3-2.3.8-4.6 1.7-7.2 2.6-8.7 4.1-13.7 12.8-11.4 22.4"/><path d="M394.5 196.699c-18.8 27.6-34.5 27.3-34.5 27.3m-16.1 57.1c-26.8 5.3-39.6-7.9-39.6-7.9m-119 12.001c-1.7 7.4-7.4 12.9-14.2 14.8-2.8.6-18.2 6.6-22.4 7.9-23.8 7.4-57.5 3-63-26.8-44.5-10.7-55.6-45.1-50.6-84.4-18.2-26.8 3.3-60.6 11.4-76.6 1.8-3.6 7.3-2.1 7.1 1.9v1.9c0 32.5 26.3 67.9 58.8 67.9l3.3-.1c10.1.2 18.3 8.4 18.3 18.5 0 0-.2 4.1-.2 4.8 0 21.2 13.8 39.1 32.9 45.3 2.3.8 4.6 1.7 7.2 2.6 8.7 4 13.7 12.7 11.4 22.3"/><path d="M35.2 196.699c18.7 27.6 34.5 27.3 34.5 27.3m16 57.1c26.8 5.3 39.6-7.9 39.6-7.9"/></g></svg>